<svg width="52" height="52" viewBox="0 0 52 52" fill="none" xmlns="http://www.w3.org/2000/svg">
    <rect width="52" height="52" rx="2" fill="white"/>
    <path fill-rule="evenodd" clip-rule="evenodd" d="M32.28 23.4295C32.28 24.0954 32.8133 24.6282 33.48 24.6282C34.1467 24.6282 34.6933 24.0954 34.6933 23.4295C34.6933 22.7636 34.1467 22.2175 33.48 22.2175C32.8133 22.2175 32.28 22.7636 32.28 23.4295ZM29.6933 31.4739C28.7467 32.4195 27.44 33.0055 26 33.0055C24.6 33.0055 23.2933 32.4595 22.2933 31.4739C21.3067 30.475 20.76 29.1698 20.76 27.7714C20.7467 26.3862 21.2933 25.081 22.28 24.0821C23.28 23.0832 24.6 22.5372 26 22.5372C27.4 22.5372 28.72 23.0832 29.7067 24.0688C30.6933 25.0677 31.24 26.3862 31.24 27.7714C31.2267 29.2231 30.64 30.5283 29.6933 31.4739ZM26 24.535C25.1333 24.535 24.32 24.8679 23.6933 25.4939C23.08 26.1065 22.7467 26.919 22.76 27.758V27.7714C22.76 28.6371 23.0933 29.4495 23.7067 30.0621C24.32 30.6748 25.1333 31.0078 26 31.0078C27.7867 31.0078 29.2267 29.556 29.24 27.7714C29.24 26.9057 28.9067 26.0932 28.2933 25.4806C27.68 24.8679 26.8667 24.535 26 24.535Z" fill="#8A8A8A"/>
    <path opacity="0.4" d="M33.2534 18.3152L33.1201 18.0222C32.7601 17.263 32.3467 16.384 32.0934 15.8779C31.4801 14.6792 30.4267 14.0133 29.1334 14H22.8534C21.5601 14.0133 20.5201 14.6792 19.9067 15.8779C19.6401 16.4107 19.1867 17.3696 18.8134 18.1554L18.7334 18.3152C18.6934 18.4218 18.5867 18.475 18.4801 18.475C15.2667 18.475 12.6667 21.0855 12.6667 24.2819V32.1931C12.6667 35.3896 15.2667 38 18.4801 38H33.5201C36.7201 38 39.3334 35.3896 39.3334 32.1931V24.2819C39.3334 21.0855 36.7201 18.475 33.5201 18.475C33.4001 18.475 33.3067 18.4084 33.2534 18.3152Z" fill="#8A8A8A"/>
</svg>
