<svg xmlns="http://www.w3.org/2000/svg" viewBox="0 0 85.43 52"><defs><style>.cls-1,.cls-2{fill:#585cc6;}.cls-1{fill-rule:evenodd;}</style></defs><g id="Слой_2" data-name="Слой 2"><g id="Слой_1-2" data-name="Слой 1"><path class="cls-1" d="M70,32.19H62.23V1.07h7.65V18.28c1.09.31,1.78.2,2.36-.77,1.15-2,2.43-3.83,3.7-5.71a1.53,1.53,0,0,1,.42-.42,1.5,1.5,0,0,1,.55-.23H85l-6.49,9.44a1.16,1.16,0,0,0-.31.83,1.15,1.15,0,0,0,.34.82c2.09,2.87,4.86,7.05,6.91,10H79.6a4.94,4.94,0,0,1-4.42-2.55c-1-1.7-1.92-3-3-4.52a1.83,1.83,0,0,0-.37-.53,1.75,1.75,0,0,0-.56-.35,1.88,1.88,0,0,0-.66-.12,1.85,1.85,0,0,0-.65.14Zm-11.72,0h-7.7V30.9q0-5.2,0-10.41c0-2-.6-3-2-3.47A4.63,4.63,0,0,0,46,17a4.45,4.45,0,0,0-2.13,1.33,2.1,2.1,0,0,0-.29,1.17c0,3.65,0,7.29,0,10.94v1.75h-7.7v-21h6.72l.14,2.14c.31-.25.5-.39.68-.55a9.4,9.4,0,0,1,4.82-2.25,9.56,9.56,0,0,1,5.31.69A7.15,7.15,0,0,1,57,13.83a6.79,6.79,0,0,1,1.24,4.06S58.24,27.4,58.24,32.19Zm-38.3,0h-7.6V0h7.6Zm-19.3-21h7.6v21H.64Zm23.48,0h7.61v21H24.12ZM4.47,8.2A4.22,4.22,0,0,1,2.78,8,4.45,4.45,0,0,1,1.33,7.1a4,4,0,0,1-1-1.36,4,4,0,0,1,0-3.24,4,4,0,0,1,1-1.36A4.17,4.17,0,0,1,2.75.26,4.4,4.4,0,0,1,4.44,0C7.12,0,8.88,1.59,8.89,4A3.82,3.82,0,0,1,7.67,7.11,4,4,0,0,1,6.2,8,4.08,4.08,0,0,1,4.47,8.2Zm23.42,0a4.31,4.31,0,0,1-2.27-.81A4.08,4.08,0,0,1,24.18,5.5,4,4,0,0,1,24,3.15a4.09,4.09,0,0,1,1.21-2A4.31,4.31,0,0,1,27.42.06a4.37,4.37,0,0,1,2.4.27,4.25,4.25,0,0,1,1.86,1.51,4.07,4.07,0,0,1,.7,2.26,4,4,0,0,1-.3,1.66,4.09,4.09,0,0,1-1,1.39A4.12,4.12,0,0,1,29.61,8a4.06,4.06,0,0,1-1.73.19Z"/><path class="cls-2" d="M2.71,51.84l.89-2.75H7.91l.89,2.75h2.71L7.39,39.78H4.13L0,51.84ZM4.24,47.1l1.47-4.56H5.8L7.28,47.1Z"/><path class="cls-2" d="M23.1,44a4.85,4.85,0,0,0-5.19-4.38c-3.16,0-5.57,2.25-5.57,6.19S14.71,52,17.91,52a4.94,4.94,0,0,0,5.19-4.27H20.55a2.46,2.46,0,0,1-2.6,2c-1.81,0-3-1.36-3-3.94s1.22-3.94,3.07-3.94A2.44,2.44,0,0,1,20.55,44Z"/><path class="cls-2" d="M26.92,51.84l.89-2.75h4.31L33,51.84h2.71L31.59,39.78H28.34L24.21,51.84Zm1.53-4.74,1.47-4.56H30l1.47,4.56Z"/><path class="cls-2" d="M41.56,51.84c3.64,0,5.85-2.28,5.85-6s-2.21-6-5.81-6H37.32V51.84Zm-1.71-2.19V42h1.61c2.24,0,3.43,1.15,3.43,3.83s-1.19,3.85-3.43,3.85Z"/><path class="cls-2" d="M49.45,51.84h8.08V49.73H52V46.86h5.11v-2.1H52V41.88h5.53v-2.1H49.45Z"/><path class="cls-2" d="M59.68,39.78V51.84h2.46V44h.09l3.1,7.82H67L70.09,44h.1v7.85h2.46V39.78H69.53l-3.3,8.1h-.14l-3.29-8.1Z"/><path class="cls-2" d="M74.19,39.78l4.37,7.79v4.27h2.51V47.57l4.36-7.79H82.6L79.87,45h-.12L77,39.78Z"/></g></g></svg>