<svg xmlns="http://www.w3.org/2000/svg" viewBox="0 0 14.56 18.11"><defs><style>.cls-1{fill:#525aa5;stroke:#525aa5;fill-rule:evenodd;}</style></defs><g id="Слой_2" data-name="Слой 2"><g id="Слой_1-2" data-name="Слой 1"><path class="cls-1" d="M11.75.75,6.18,2.25l.3,1.13,4.21-1.14L6.88,8.83A4.59,4.59,0,0,0,1.1,10.69,4.62,4.62,0,0,0,2.86,17a4.54,4.54,0,0,0,5-7.55L11.7,2.83,12.82,7,14,6.73,12.46,1.16,12.32.61ZM6.83,10.08a3.57,3.57,0,0,0-2-.47,3.33,3.33,0,0,0-2.73,1.66A3.43,3.43,0,0,0,3.44,16a3.45,3.45,0,0,0,4.73-1.19A3.45,3.45,0,0,0,6.83,10.08Z"/></g></g></svg>