<svg xmlns="http://www.w3.org/2000/svg" viewBox="0 0 870.84 1688.25"><defs><style>.cls-1{fill:#fff;opacity:0.07;isolation:isolate;}</style></defs><g id="Слой_2" data-name="Слой 2"><g id="Слой_1-2" data-name="Слой 1"><path class="cls-1" d="M42.21,1072.92l40.28-4.28Zm403.5-263-22,34Zm-214-49.5,40.47-1.6Zm562.45,852.16C445.22,1479.37,274,1395,186,1318.2c-42.41-37-64.45-71.42-77.88-108.68-14-38.88-19.39-82.38-25.59-140.88l-80.55,8.55c6,57,12.06,110.25,29.94,159.82,18.47,51.2,48.87,96.92,100.84,142.23,100.71,87.86,286,176.72,632.55,309ZM82.49,1068.64C74.34,991.83,99.11,891,154.8,833.3c26.72-27.68,60.09-45.17,101.61-46.95,42.33-1.81,97.62,12.54,167.32,57.58l44-68c-79-51-150.7-73.22-214.75-70.48-64.85,2.78-117.17,31-156.43,71.64-76.26,79-104.58,205.77-94.57,300.13ZM423.73,843.93c66.17,42.76,76.87,81.34,74.44,102.92-2.61,23.14-22.06,46.23-53.88,55.58-30.25,8.89-68.55,3.71-101.56-28.35-33.75-32.77-65.91-97.8-70.55-215.26L191.25,762c5.11,129.54,41.14,217.83,95.05,270.18,54.63,53.06,123.46,64.82,180.83,48,55.81-16.4,104.49-61.75,111.53-124.23,7.23-64-30.89-128.28-111-180ZM272.18,758.82C259.75,443.94,315.6,287.18,411.52,202.67,509.86,116,660.66,94.49,870.84,80.83L865.59,0C660.27,13.34,480.27,34.13,358,141.89,233.24,251.79,178.59,441.53,191.25,762Z"/></g></g></svg>